<?xml version="1.0" standalone="no"?>
<!DOCTYPE svg PUBLIC "-//W3C//DTD SVG 20010904//EN"
 "http://www.w3.org/TR/2001/REC-SVG-20010904/DTD/svg10.dtd">
<svg version="1.0" xmlns="http://www.w3.org/2000/svg"
 width="1054.000000pt" height="1054.000000pt" viewBox="0 0 1054.000000 1054.000000"
 preserveAspectRatio="xMidYMid meet">
<metadata>
Created by potrace 1.14, written by Peter Selinger 2001-2017
</metadata>
<g transform="translate(0.000000,1054.000000) scale(0.100000,-0.100000)"
fill="#000000" stroke="none">
<path d="M4755 9494 c-88 -23 -98 -29 -530 -279 -93 -55 -183 -106 -200 -115
-16 -9 -49 -28 -72 -43 -24 -15 -45 -27 -48 -27 -4 0 -62 -33 -175 -100 -70
-42 -287 -166 -295 -169 -5 -2 -28 -16 -50 -30 -22 -15 -51 -32 -65 -39 -14
-6 -32 -16 -40 -22 -8 -5 -40 -24 -70 -41 -30 -18 -113 -66 -185 -107 -71 -41
-146 -84 -165 -95 -19 -10 -47 -28 -61 -38 -14 -10 -29 -16 -33 -12 -3 3 -6 1
-6 -5 0 -7 -5 -12 -11 -12 -16 0 -80 -50 -126 -100 -44 -48 -86 -123 -108
-196 -18 -59 -17 -195 2 -258 45 -152 128 -242 319 -347 32 -18 79 -45 104
-60 25 -15 73 -43 108 -61 34 -18 62 -36 62 -40 0 -5 5 -8 11 -8 6 0 60 -29
120 -65 61 -36 112 -65 115 -65 2 0 23 -12 46 -26 80 -51 228 -134 238 -134 5
0 10 -4 10 -10 0 -5 11 -12 25 -16 14 -3 25 -10 25 -15 0 -5 6 -9 14 -9 8 0
21 -6 28 -13 7 -6 31 -21 53 -32 22 -11 42 -22 45 -25 3 -3 16 -11 29 -18 61
-35 90 -51 139 -81 29 -17 57 -31 62 -31 6 0 10 -4 10 -10 0 -5 5 -10 11 -10
6 0 45 -20 86 -45 40 -25 76 -45 78 -45 3 0 29 -16 59 -35 30 -19 57 -35 60
-35 3 0 34 -17 68 -38 35 -21 70 -41 78 -45 8 -4 31 -17 50 -28 19 -12 55 -33
80 -47 25 -14 74 -42 109 -64 34 -21 64 -38 66 -38 2 0 64 -36 139 -80 76 -44
139 -80 142 -80 2 0 23 -12 47 -27 23 -15 53 -33 66 -41 55 -29 206 -117 211
-122 3 -3 31 -18 62 -35 32 -16 58 -33 58 -37 0 -5 4 -8 10 -8 8 0 75 -36 170
-92 62 -36 553 -320 600 -346 25 -14 62 -36 82 -49 21 -12 42 -23 48 -23 5 0
10 -4 10 -10 0 -5 5 -10 11 -10 8 0 193 -104 249 -140 8 -6 24 -14 36 -19 36
-16 84 -63 103 -100 50 -103 0 -226 -114 -278 -39 -18 -68 -36 -77 -48 -5 -7
-8 -7 -8 0 0 6 -3 6 -8 -1 -4 -5 -34 -25 -67 -44 -86 -47 -113 -63 -171 -97
-27 -17 -70 -41 -95 -55 -24 -14 -147 -85 -274 -158 -447 -258 -485 -280 -495
-280 -6 0 -10 -3 -10 -8 0 -4 -21 -18 -47 -32 -27 -13 -71 -39 -100 -57 -29
-18 -54 -33 -56 -33 -2 0 -42 -22 -88 -48 -188 -109 -377 -134 -572 -76 -46
13 -239 113 -245 127 -2 4 -9 7 -15 7 -7 0 -40 18 -75 40 -34 22 -67 40 -72
40 -5 0 -15 6 -22 13 -7 7 -24 18 -38 24 -14 7 -47 26 -75 43 -27 17 -75 44
-105 60 -30 17 -68 39 -85 50 -16 11 -39 24 -51 29 -19 8 -136 76 -174 101 -8
6 -24 14 -35 20 -11 5 -41 22 -67 37 -125 75 -344 198 -355 201 -7 2 -13 7
-13 11 0 4 -16 13 -35 21 -19 8 -35 17 -35 21 0 4 -8 9 -17 12 -10 4 -40 20
-68 36 -27 17 -66 39 -85 48 -47 24 -104 85 -117 126 -16 52 -8 111 21 161 25
43 93 90 251 175 17 9 37 21 45 27 8 6 35 22 60 35 25 13 47 26 50 29 4 4 29
18 115 64 11 6 22 14 25 17 6 7 47 29 103 56 20 10 37 21 37 25 0 5 4 8 9 8 4
0 58 29 119 64 61 36 131 76 154 89 24 13 61 34 83 47 22 12 45 26 50 30 6 4
33 20 60 35 118 65 210 120 216 128 3 5 10 9 15 9 5 1 18 6 29 13 28 17 152
88 200 115 22 13 54 31 70 41 17 10 44 25 60 34 59 31 72 40 67 53 -2 6 -7 12
-12 12 -5 0 -54 27 -110 60 -56 33 -104 60 -106 60 -2 0 -21 10 -42 23 -20 12
-48 21 -62 21 -35 -2 -70 -15 -70 -25 0 -5 -4 -9 -9 -9 -6 0 -124 -66 -263
-147 -139 -80 -269 -155 -288 -166 -70 -38 -96 -53 -156 -90 -34 -20 -67 -37
-73 -37 -6 0 -11 -4 -11 -10 0 -5 -4 -10 -10 -10 -5 0 -38 -17 -72 -38 -35
-21 -70 -41 -78 -45 -8 -4 -30 -16 -48 -27 -29 -18 -178 -104 -534 -309 -53
-31 -113 -71 -134 -89 -70 -62 -136 -169 -149 -241 -3 -19 -8 -37 -10 -41 -7
-11 -7 -141 -1 -170 3 -14 8 -34 10 -46 11 -52 73 -158 123 -208 49 -49 179
-136 204 -136 5 0 9 -4 9 -9 0 -5 8 -11 18 -14 9 -4 35 -18 57 -31 22 -14 49
-30 61 -35 12 -5 46 -26 77 -45 31 -20 58 -36 61 -36 3 0 29 -14 58 -31 57
-34 222 -130 276 -161 52 -29 91 -52 187 -108 50 -29 110 -64 135 -78 134 -75
379 -217 402 -233 15 -11 29 -19 32 -19 2 0 86 -47 185 -105 168 -97 321 -179
321 -170 0 2 19 -2 43 -9 52 -15 179 -18 238 -4 24 5 52 11 62 13 36 8 160 75
547 300 399 231 463 268 512 295 122 68 184 105 186 112 2 4 7 8 12 8 7 0 195
104 215 119 6 5 35 22 65 38 65 35 79 43 273 157 82 47 151 86 154 86 16 0
127 97 156 137 33 46 68 107 73 128 2 6 9 33 17 61 19 73 14 186 -13 263 -40
118 -114 208 -222 271 -29 17 -60 35 -68 40 -8 6 -82 49 -165 96 -82 48 -166
96 -185 107 -19 11 -53 30 -75 42 -22 13 -139 80 -260 150 -121 71 -233 136
-250 145 -16 9 -102 59 -190 110 -88 52 -181 105 -207 118 -27 14 -48 28 -48
33 0 5 -9 9 -19 9 -11 0 -22 4 -25 9 -7 11 -114 72 -120 69 -2 -2 -12 4 -22
13 -11 9 -65 42 -122 74 -56 31 -105 61 -108 66 -3 5 -10 7 -15 4 -5 -4 -9 -1
-9 4 0 6 -4 11 -9 11 -5 0 -67 34 -136 75 -70 41 -128 75 -130 75 -2 0 -39 21
-82 46 -43 26 -94 56 -113 67 -53 30 -350 202 -390 226 -19 11 -42 24 -50 28
-8 4 -37 20 -65 36 -44 26 -324 189 -380 221 -64 37 -144 83 -170 99 -16 10
-38 20 -47 23 -10 4 -18 10 -18 15 0 5 -5 9 -10 9 -6 0 -65 32 -133 71 -159
93 -181 106 -247 142 -30 16 -61 34 -68 40 -7 5 -35 22 -63 37 -130 68 -175
169 -124 278 17 37 37 60 77 86 29 20 58 36 65 36 6 0 13 4 15 8 2 4 30 23 63
41 89 50 115 65 173 100 29 17 57 31 62 31 6 0 10 4 10 9 0 5 8 11 18 15 17 5
94 47 142 78 14 8 133 77 265 153 132 75 276 158 320 184 44 26 87 50 95 54 8
4 29 15 45 25 68 42 293 171 334 192 78 39 213 67 309 64 151 -5 224 -30 422
-144 148 -85 178 -102 290 -166 47 -27 87 -52 88 -56 2 -4 8 -8 13 -8 7 0 162
-87 249 -140 8 -5 92 -53 185 -106 94 -54 172 -101 173 -106 2 -4 10 -8 18 -8
8 0 38 -15 67 -33 29 -18 59 -36 67 -41 8 -4 24 -12 35 -19 11 -7 67 -39 125
-72 58 -32 107 -62 110 -66 3 -3 15 -9 28 -13 12 -4 22 -12 22 -17 0 -5 7 -9
15 -9 9 0 21 -11 27 -25 6 -14 14 -25 18 -25 16 0 33 -81 27 -130 -9 -73 -47
-116 -163 -184 -53 -31 -100 -56 -105 -56 -4 0 -14 -6 -21 -13 -12 -12 -43
-30 -178 -105 -25 -14 -62 -36 -82 -49 -21 -12 -42 -23 -48 -23 -5 0 -10 -4
-10 -10 0 -5 -4 -10 -8 -10 -5 0 -150 -82 -323 -181 -173 -100 -334 -193 -359
-207 -25 -14 -78 -45 -118 -69 -41 -24 -77 -43 -82 -43 -5 0 -10 -3 -12 -7 -1
-5 -18 -16 -35 -25 -18 -10 -48 -26 -65 -35 -18 -10 -34 -21 -36 -25 -2 -5 -9
-8 -16 -8 -7 0 -27 -11 -46 -25 -18 -13 -37 -22 -41 -19 -5 3 -9 0 -9 -5 0 -6
-15 -17 -32 -24 -73 -31 -69 -36 95 -131 105 -61 162 -88 184 -88 23 0 88 32
225 112 106 62 213 124 237 138 25 14 65 37 90 52 26 14 53 30 61 34 8 4 32
17 52 29 32 19 180 105 302 176 23 13 67 38 99 57 32 19 62 34 68 34 5 0 9 5
9 10 0 6 4 10 9 10 7 0 91 47 226 127 28 16 57 32 65 36 8 5 24 13 35 20 11 7
63 37 115 67 117 67 112 63 179 131 44 44 110 145 112 174 0 2 5 19 11 37 16
51 18 192 3 243 -43 140 -103 220 -227 303 -28 17 -51 32 -53 32 -4 0 -310
176 -345 198 -14 9 -28 17 -32 17 -4 0 -13 6 -20 13 -6 6 -18 12 -25 12 -7 0
-13 5 -13 10 0 6 -5 10 -10 10 -9 0 -167 89 -300 169 -19 11 -44 25 -55 30
-11 5 -37 21 -58 35 -21 14 -40 26 -43 26 -3 0 -57 30 -120 68 -63 37 -132 76
-152 88 -20 11 -57 33 -82 48 -25 15 -53 29 -62 33 -10 3 -18 9 -18 14 0 5 -5
9 -10 9 -6 0 -116 61 -244 135 -195 113 -342 190 -353 186 -2 -1 -4 -1 -5 0
-50 16 -234 18 -293 3z"/>
<path d="M4087 7783 c-2 -1 -21 -5 -43 -8 -21 -4 -47 -8 -56 -11 -9 -3 -25 -6
-35 -9 -65 -13 -241 -91 -270 -121 -8 -7 -27 -21 -43 -31 -29 -16 -41 -43 -20
-43 5 0 43 -20 83 -45 41 -25 78 -45 81 -45 4 0 27 -13 51 -30 24 -16 46 -30
49 -30 3 0 42 -22 88 -50 46 -27 89 -50 96 -50 6 0 12 -4 12 -10 0 -5 7 -10
15 -10 8 0 15 -4 15 -10 0 -6 3 -9 8 -8 4 1 18 -5 32 -13 61 -40 203 -119 211
-119 5 0 9 -5 9 -11 0 -5 5 -7 10 -4 6 3 10 1 10 -4 0 -6 4 -11 9 -11 5 0 40
-18 78 -40 37 -23 75 -45 83 -49 8 -5 46 -28 83 -50 38 -23 70 -41 72 -41 3 0
43 -23 89 -51 l85 -51 53 29 c29 15 55 30 58 33 3 3 16 11 30 18 14 7 39 20
55 31 17 10 138 80 270 156 132 76 254 146 270 156 17 10 66 38 110 64 86 49
137 78 228 131 32 19 62 34 68 34 5 0 9 4 9 9 0 5 10 13 23 17 12 4 41 19 63
35 23 16 45 25 49 21 4 -4 6 0 3 8 -10 35 -229 160 -308 175 -8 2 -17 4 -20 6
-3 1 -9 3 -15 4 -5 2 -12 4 -15 5 -3 1 -16 3 -30 6 -14 2 -41 7 -60 10 -90 17
-226 9 -347 -20 -13 -4 -31 -8 -40 -10 -24 -5 -102 -37 -183 -74 -64 -29 -121
-45 -170 -47 -14 -1 -30 -3 -35 -6 -20 -11 -152 -1 -220 16 -38 10 -97 31
-129 46 -33 16 -63 29 -67 29 -3 0 -24 7 -45 16 -22 9 -39 16 -39 14 0 -1 -13
4 -30 10 -16 7 -39 14 -50 16 -11 2 -33 7 -50 10 -30 7 -233 13 -238 7z"/>
<path d="M4887 5870 c-3 -11 -2 -22 2 -24 4 -3 8 6 9 20 2 29 -4 31 -11 4z"/>
<path d="M4885 5677 c1 -83 -2 -164 -6 -179 -4 -14 -4 -29 -1 -32 9 -9 9 -76
0 -76 -4 0 -3 -11 2 -24 5 -13 6 -26 3 -29 -2 -3 -6 -101 -8 -219 -2 -117 -6
-224 -9 -238 -3 -14 -8 -37 -11 -51 -8 -37 -33 -56 -80 -63 -89 -13 -112 -18
-145 -29 -19 -6 -37 -11 -40 -12 -6 0 -65 -23 -95 -36 -96 -41 -264 -30 -336
22 -15 10 -32 19 -38 19 -6 0 -11 4 -11 8 0 7 -177 100 -235 123 -35 14 -156
49 -189 54 -17 3 -44 8 -60 11 -59 12 -236 18 -301 10 -16 -3 -50 -6 -75 -9
-25 -3 -58 -10 -74 -16 l-28 -11 63 -34 c74 -38 212 -117 219 -125 3 -3 23
-15 45 -27 22 -11 56 -30 75 -41 33 -19 497 -287 708 -409 51 -30 97 -54 102
-54 4 0 10 -4 12 -8 2 -5 28 -22 58 -39 30 -17 80 -45 110 -62 183 -106 311
-132 487 -97 53 10 124 41 204 88 41 24 81 47 89 51 18 8 53 30 60 37 3 3 21
13 40 24 105 56 130 71 130 79 0 4 5 5 10 2 6 -3 10 -1 10 4 0 6 5 11 11 11 9
0 76 37 239 133 19 11 49 28 65 37 17 9 41 23 55 31 43 27 291 170 349 202 31
16 68 38 83 49 14 10 29 18 32 18 4 0 23 11 44 23 20 13 70 43 110 67 40 23
71 44 69 47 -5 4 -37 12 -77 19 -20 3 -133 12 -215 16 -21 1 -161 -12 -185
-18 -14 -3 -34 -7 -45 -8 -11 -2 -20 -4 -20 -6 0 -1 -13 -4 -30 -6 -63 -10
-244 -81 -307 -121 -21 -13 -42 -23 -48 -23 -5 0 -10 -4 -10 -8 0 -16 -146
-81 -191 -85 -26 -3 -52 -8 -58 -11 -6 -4 -11 -4 -11 1 0 4 -15 9 -33 9 -45 3
-84 12 -131 33 -41 18 -142 50 -181 56 -11 2 -38 6 -60 10 -60 8 -71 13 -83
38 -25 48 -30 126 -37 562 -7 462 -7 465 -14 465 -3 0 -6 -69 -6 -153z"/>
<path d="M4260 2962 c-98 -32 -143 -93 -146 -197 -2 -68 20 -119 66 -153 25
-19 101 -49 145 -58 21 -4 63 -13 80 -18 62 -15 84 -36 84 -76 0 -67 -67 -88
-214 -66 -11 2 -20 5 -20 6 0 1 -9 4 -20 5 -11 1 -40 12 -64 24 -25 11 -47 21
-50 21 -4 0 -6 -33 -6 -72 l1 -73 54 -18 c72 -24 119 -31 215 -31 95 0 131 6
171 28 74 40 104 88 109 175 5 82 -3 107 -50 154 -42 42 -79 58 -179 78 -28 6
-62 12 -75 15 -36 7 -81 33 -82 47 -4 44 11 70 53 86 36 14 146 5 218 -18 35
-11 66 -18 68 -16 3 2 5 34 5 71 0 51 -3 68 -14 70 -31 6 -62 13 -81 20 -44
13 -223 11 -268 -4z"/>
<path d="M4880 2959 c-65 -23 -97 -50 -123 -108 -38 -85 -17 -187 48 -237 36
-27 121 -59 182 -67 56 -8 123 -36 125 -53 5 -54 1 -68 -24 -87 -49 -37 -179
-25 -300 27 -21 9 -39 16 -41 16 -8 0 -1 -140 8 -148 47 -42 301 -62 394 -32
116 38 173 154 136 278 -24 79 -101 125 -245 148 -104 16 -142 41 -134 89 3
23 39 55 63 56 9 1 30 2 46 4 17 2 55 -1 85 -6 74 -14 74 -14 85 -20 6 -4 23
-9 38 -13 l28 -7 -3 73 -3 73 -55 13 c-96 22 -248 23 -310 1z"/>
<path d="M7475 2973 c-123 -24 -187 -93 -187 -202 0 -67 2 -77 27 -118 29 -49
118 -91 227 -108 36 -5 118 -41 119 -52 0 -4 2 -19 3 -32 4 -30 -36 -71 -72
-72 -82 -4 -161 2 -168 13 -3 4 -14 8 -25 8 -11 0 -37 9 -59 20 -22 11 -42 20
-45 20 -3 0 -5 -33 -5 -74 l0 -75 53 -15 c79 -23 105 -27 187 -31 174 -9 295
58 303 165 1 17 5 30 8 30 3 0 2 21 -2 48 -4 26 -8 53 -8 59 -1 7 -16 30 -35
51 -32 35 -91 64 -156 76 -14 3 -34 7 -45 10 -11 2 -33 7 -50 11 -58 13 -85
28 -90 49 -14 62 21 89 114 89 83 0 121 -5 121 -16 0 -4 4 -6 9 -3 5 3 25 -1
45 -9 19 -8 39 -15 43 -15 5 0 8 32 8 72 l0 72 -60 13 c-60 13 -223 23 -260
16z"/>
<path d="M8550 2965 c-61 -16 -141 -55 -147 -72 -3 -7 -10 -13 -17 -13 -18 0
-72 -90 -90 -148 -10 -35 -14 -81 -12 -137 3 -71 8 -95 34 -148 46 -92 134
-163 227 -183 41 -8 203 -9 240 -1 17 4 43 9 60 13 16 4 48 14 70 24 l41 18
-1 163 c-1 90 -3 166 -4 169 0 3 -62 5 -136 5 -153 0 -149 2 -143 -80 3 -38 5
-40 38 -42 19 0 44 -1 55 -2 18 -1 20 -8 20 -66 0 -60 -2 -65 -25 -73 -37 -12
-130 -7 -171 11 -83 34 -126 123 -116 239 9 108 56 170 148 196 60 16 160 6
233 -23 37 -15 69 -25 71 -23 5 5 7 31 6 85 l-1 52 -67 21 c-81 26 -245 33
-313 15z"/>
<path d="M10140 2961 c-103 -33 -149 -96 -146 -203 3 -122 64 -174 254 -213
96 -20 121 -38 121 -85 0 -68 -75 -90 -217 -65 -18 3 -57 16 -88 30 -31 14
-59 25 -63 25 -9 0 -7 -138 2 -147 4 -4 13 -8 20 -9 7 -2 39 -11 72 -20 39
-11 98 -17 170 -18 102 0 115 2 168 28 82 39 107 85 107 193 0 145 -42 178
-295 229 -74 15 -103 49 -79 95 17 34 54 47 124 44 67 -3 103 -10 160 -30 48
-17 57 -12 54 32 -1 15 -3 44 -3 64 l-1 35 -65 13 c-106 21 -232 22 -295 2z"/>
<path d="M9 2965 c-1 0 -2 -30 -3 -67 l-2 -68 81 -1 c44 -1 97 0 117 1 l37 1
0 -276 c0 -152 2 -280 6 -283 3 -3 44 -6 90 -7 79 -1 85 1 86 20 0 11 1 138 1
283 l0 263 52 -1 c28 -1 81 -1 117 -1 l65 1 -2 63 c-1 34 -2 64 -3 67 -1 4
-625 9 -642 5z"/>
<path d="M702 2956 c-6 -11 -11 -661 -5 -681 4 -11 168 -14 178 -3 3 3 6 14 6
24 0 11 0 62 0 114 0 52 -1 104 -1 115 0 53 1 117 1 123 1 4 1 12 -1 17 -1 6
-1 44 0 85 3 232 10 215 -89 216 -49 0 -85 -4 -89 -10z"/>
<path d="M1079 2940 c-5 -259 -2 -670 6 -671 6 0 44 -2 85 -3 l75 -2 5 251 c3
151 8 242 14 230 4 -11 20 -47 35 -80 15 -33 47 -106 71 -161 l42 -102 61 2
60 1 25 60 c14 33 35 83 48 112 22 47 44 99 49 113 9 26 34 73 35 65 1 -5 2
-118 2 -250 l1 -240 83 0 c46 0 85 2 85 5 3 12 5 676 2 685 -3 9 -189 14 -225
6 -9 -1 -58 -109 -58 -127 0 -8 -5 -14 -11 -14 -5 0 -8 -4 -5 -8 3 -5 -3 -22
-12 -38 -10 -16 -31 -62 -46 -101 -24 -59 -32 -71 -43 -62 -7 7 -11 14 -9 17
3 3 -1 17 -9 31 -30 54 -73 160 -67 165 3 3 0 6 -6 6 -7 0 -11 3 -10 8 1 4 -4
18 -9 32 -6 14 -18 41 -26 60 l-15 35 -116 0 -116 0 -1 -25z"/>
<path d="M2056 2960 c-1 -3 -2 -160 -2 -350 l1 -344 248 -1 c136 0 247 0 248
0 0 0 3 30 5 68 3 49 1 67 -8 68 -7 0 -78 2 -158 2 l-145 2 -3 25 c-3 31 -5
100 -3 120 1 13 24 15 143 15 l143 0 2 63 c2 57 0 64 -20 71 -12 5 -24 6 -27
2 -6 -8 -57 -7 -66 1 -3 4 -17 3 -31 -3 -16 -6 -22 -6 -18 1 4 6 -2 7 -17 1
-13 -4 -32 -5 -43 -1 -11 4 -30 4 -41 -1 -17 -6 -23 -3 -27 12 -3 10 -1 19 4
19 6 0 6 8 2 18 -7 15 -8 25 -4 70 1 9 36 12 146 11 80 0 149 2 154 5 13 9 10
126 -3 127 -31 5 -478 3 -480 -1z"/>
<path d="M2764 2956 c-1 -6 -2 -53 -1 -103 1 -51 -1 -93 -5 -93 -4 0 -3 -12 1
-27 6 -26 7 -84 1 -108 -1 -5 -2 -12 0 -15 5 -15 4 -170 -2 -170 -4 0 -5 -7
-2 -15 10 -25 11 -99 2 -117 -6 -12 -5 -18 2 -18 6 0 8 -4 5 -10 -3 -5 -3 -10
2 -11 29 -4 493 -3 494 1 0 3 2 31 3 64 2 47 -1 59 -15 65 -10 3 -82 6 -161 5
l-143 -1 0 281 0 281 -88 1 c-56 0 -90 -3 -93 -10z"/>
<path d="M3423 2963 c-10 -4 -9 -681 1 -690 11 -12 497 -9 492 2 -2 6 1 20 5
32 5 12 5 25 0 27 -4 3 -6 19 -3 36 2 16 0 30 -4 31 -5 0 -76 1 -159 2 l-150
2 -3 78 c-2 56 1 77 10 78 7 1 73 1 146 1 l132 -1 0 64 c0 35 -4 66 -9 69 -5
3 -31 6 -57 6 -27 0 -58 0 -69 1 -27 1 -34 0 -83 -4 -24 -2 -45 0 -48 5 -3 5
-10 6 -16 2 -6 -4 -8 12 -6 45 3 29 1 54 -4 57 -27 17 21 24 158 24 l155 0 -3
68 -3 67 -237 0 c-130 0 -241 -1 -245 -2z"/>
<path d="M5788 2956 c0 -6 -2 -163 -3 -348 -1 -335 -1 -338 19 -339 90 -5 263
-2 321 5 171 21 276 104 314 249 14 55 6 174 -16 230 -19 48 -81 136 -96 137
-4 0 -24 11 -45 24 -20 12 -40 24 -44 25 -5 0 -10 2 -13 2 -3 1 -8 2 -12 3
-84 21 -422 30 -425 12z m354 -145 c127 -40 160 -251 54 -353 -21 -21 -41 -36
-44 -33 -3 3 -11 0 -18 -6 -20 -16 -164 -22 -165 -7 -3 43 -4 404 -1 411 5 10
129 2 174 -12z"/>
<path d="M6594 2955 c-2 -5 -3 -163 -2 -350 l3 -340 243 0 c134 0 247 2 250 5
4 3 7 33 7 68 0 59 -1 62 -25 63 -14 1 -86 2 -160 2 l-135 2 -2 78 c-2 67 0
77 15 78 9 1 74 1 145 1 91 -1 127 3 128 11 9 75 0 141 -16 125 -4 -3 -19 -2
-35 2 -16 4 -31 6 -34 2 -8 -8 -66 -8 -66 0 0 4 -13 3 -30 -2 -18 -5 -32 -5
-36 1 -3 6 -12 6 -22 0 -33 -18 -49 4 -51 69 0 33 2 59 6 59 5 -1 76 -1 158 0
l150 1 0 60 c-1 32 -5 63 -9 67 -12 12 -478 11 -482 -2z"/>
<path d="M7934 2955 c-2 -5 -2 -163 -1 -350 l2 -340 80 0 c44 -1 85 0 90 2 7
2 10 122 9 346 -1 188 -2 344 -3 348 -2 10 -173 4 -177 -6z"/>
<path d="M9129 2965 c-5 -1 -4 -695 0 -696 20 -3 148 -4 156 -2 7 3 11 80 10
228 0 130 4 224 9 222 5 -2 28 -39 51 -83 23 -43 66 -122 94 -174 29 -52 61
-114 72 -138 11 -24 29 -46 40 -50 15 -6 165 -8 189 -3 3 1 6 66 5 146 0 90 4
145 10 145 6 0 6 3 0 8 -7 4 -10 81 -10 202 l0 195 -86 0 -85 0 0 -228 c1
-126 -1 -230 -4 -232 -3 -2 -24 31 -46 73 -22 43 -69 131 -104 197 -35 66 -73
136 -84 155 l-21 36 -97 0 c-54 0 -99 0 -99 -1z"/>
</g>
</svg>
