<svg xmlns="http://www.w3.org/2000/svg" viewBox="0 0 527.15 424.15"><defs><style>.cls-1{font-size:48px;font-family:JosefinSans-Bold,Josefin Sans;font-weight:700;letter-spacing:.04em}.cls-1,.cls-18{fill:#695848}.cls-2,.cls-3,.cls-4{letter-spacing:.06em}.cls-5{letter-spacing:.04em}.cls-6{letter-spacing:.07em}.cls-7{letter-spacing:.06em}.cls-8{letter-spacing:.07em}.cls-9{letter-spacing:.06em}.cls-10,.cls-11,.cls-12,.cls-13{letter-spacing:.07em}.cls-14{letter-spacing:.06em}.cls-15{fill:#16a09a}.cls-16{fill:#65c1be}.cls-17{fill:#18847f}</style></defs><g id="Layer_2" data-name="Layer 2"><g id="Layer_1-2" data-name="Layer 1"><g id="timeless"><g id="text"><text class="cls-1" transform="translate(0 362.33) scale(1.01 1)">T<tspan x="30.09" y="0" class="cls-2">I</tspan><tspan x="49.01" y="0" class="cls-3">M</tspan><tspan x="97.38" y="0" class="cls-4">E</tspan><tspan x="132.37" y="0" class="cls-5">L</tspan><tspan x="164.84" y="0" class="cls-6">E</tspan><tspan x="200.12" y="0" class="cls-7">S</tspan><tspan x="231.19" y="0" class="cls-8">S </tspan><tspan x="281.98" y="0" class="cls-9">D</tspan><tspan x="321.95" y="0" class="cls-10">E</tspan><tspan x="357.23" y="0" class="cls-11">S</tspan><tspan x="388.43" y="0" class="cls-12">I</tspan><tspan x="407.66" y="0" class="cls-13">G</tspan><tspan x="447.36" y="0" class="cls-14">N</tspan><tspan x="491.28" y="0" class="cls-8">S</tspan></text></g><g id="logo"><g id="sands"><g id="bottom"><path d="M216.37,242.52c8.73,8.6,16,14.74,28.37,18.29,16.65-4.93,26.05-16,28.2-18.17l.12-.12h0c-8.49.5-10-3.8-22.71-5.27-6-.69-4.26-1.81-5.64-67.31-1.38,65.61.37,66.62-5.64,67.31-12.37,1.42-14.42,5.76-22.72,5.27Z" class="cls-15"/><path d="M279.38,260.7l52.7-30.43a62.11,62.11,0,0,0-58.37,16.5,61.7,61.7,0,0,1-24.66,15.14A60.91,60.91,0,0,0,279.38,260.7Z" class="cls-16"/><path d="M249.05,261.91a61.7,61.7,0,0,0,24.66-15.14,63,63,0,0,1,9.19-7.58h0a19.65,19.65,0,0,1-9.83,3.32c-2.25,2.28-11.62,13.35-28.32,18.29h0c-12.36-3.55-19.64-9.69-28.37-18.29a19.55,19.55,0,0,1-9.82-3.32h0a62.42,62.42,0,0,1,9.18,7.58,62.08,62.08,0,0,0,59.87,16.12l3.79-2.19A60.91,60.91,0,0,1,249.05,261.91Z" class="cls-17"/><path d="M215.72,246.77a62.1,62.1,0,0,0-58.37-16.5l72.71,42a29.36,29.36,0,0,0,29.32,0l16.21-9.36A62.08,62.08,0,0,1,215.72,246.77Z" class="cls-16"/></g><g id="top"><path d="M225.51,109.74c12.61-3.25,17.7-9.76,23.52-15.26-15.18,1.92-19.34-5.29-31.81-7.54a45.5,45.5,0,0,0-37.11,9.86l21.3,12.3A42.66,42.66,0,0,0,225.51,109.74Z" class="cls-15"/><path d="M205.05,111.2a45,45,0,0,0,43.43-11.7,44.85,44.85,0,0,1,11.15-8.16A34.3,34.3,0,0,1,249,94.48c-5.82,5.5-10.91,12-23.52,15.26a42.66,42.66,0,0,1-24.1-.64l7.3,4.22h0Z" class="cls-17"/><path d="M205.05,111.2l39.67,22.91,64.6-37.3a45.07,45.07,0,0,0-60.84,2.69A45,45,0,0,1,205.05,111.2Z" class="cls-16"/></g></g><path id="vask" d="M227.61,25.25a34.21,34.21,0,0,1,34.21,0l78,45a9.77,9.77,0,0,1,0,16.93l-88.16,50.9,14.79,8.54a4.86,4.86,0,0,0,4.89,0l81-46.75a24.43,24.43,0,0,0,0-42.32L259.38,3.93a29.31,29.31,0,0,0-29.32,0l-92.9,53.63a24.44,24.44,0,0,0,0,42.32l202.61,117a9.77,9.77,0,0,1,0,16.93l-78,45a34.17,34.17,0,0,1-34.21,0l-78-45a9.78,9.78,0,0,1,0-16.93L237.82,166,223,157.42a4.86,4.86,0,0,0-4.89,0l-81,46.75a24.43,24.43,0,0,0,0,42.32l92.89,53.63a29.31,29.31,0,0,0,29.32,0l92.89-53.63a24.43,24.43,0,0,0,0-42.32l-202.62-117a9.78,9.78,0,0,1,0-16.93Z" class="cls-18"/></g></g></g></g></svg>